<svg width="10" height="18" xmlns="http://www.w3.org/2000/svg" xmlns:xlink="http://www.w3.org/1999/xlink" xmlns:svgjs="http://svgjs.com/svgjs" viewBox="0.235 0 9.529 18" fill="#0842b7"><svg xmlns="http://www.w3.org/2000/svg" width="10" height="18" viewBox="2 1.998 9 17.001"><path paint-order="stroke fill markers" fill-rule="evenodd" d="M2 9.759H3.61v9.24H7.19V9.76h2.528l.686-2.985H7.041s-.262-1.24.236-1.704c.257-.239.717-.42 1.309-.42.6 0 1.083.308 1.69.648L11 2.671c-1.115-.301-1.827-.673-2.99-.673-1.135 0-1.789.175-2.53.522-.742.348-1.079.963-1.355 1.515-.276.552-.414 1.226-.414 2.35v.389H2.049L2 9.759z"/></svg></svg>