<svg width="16" height="16" xmlns="http://www.w3.org/2000/svg" xmlns:xlink="http://www.w3.org/1999/xlink" xmlns:svgjs="http://svgjs.com/svgjs" viewBox="0 0 15.999 16" fill="#0842b7"><svg xmlns="http://www.w3.org/2000/svg" width="16" height="16" viewBox="1.991 2 14.996 14.997"><path paint-order="stroke fill markers" fill-rule="evenodd" d="M14.09 2h-9.2A2.901 2.901 0 0 0 1.99 4.9v9.197c0 1.598 1.3 2.9 2.898 2.9h9.2a2.903 2.903 0 0 0 2.899-2.9V7.96 4.9c0-1.6-1.3-2.9-2.899-2.9zm.83 1.729l.332-.001v2.541l-2.533.01-.009-2.544 2.21-.006zm-7.57 4.23c.48-.664 1.259-1.099 2.14-1.099.88 0 1.66.435 2.14 1.1.312.433.499.964.499 1.54a2.642 2.642 0 0 1-2.64 2.637 2.641 2.641 0 0 1-2.64-2.638c0-.575.188-1.106.5-1.54zm8.176 6.138a1.44 1.44 0 0 1-1.437 1.439h-9.2a1.44 1.44 0 0 1-1.437-1.439V7.96h2.239a4.084 4.084 0 0 0-.302 1.54c0 2.258 1.84 4.1 4.1 4.1 2.262 0 4.1-1.842 4.1-4.1 0-.546-.109-1.065-.302-1.54h2.24v6.137z"/></svg></svg>