<svg width="11" height="14" xmlns="http://www.w3.org/2000/svg" xmlns:xlink="http://www.w3.org/1999/xlink" xmlns:svgjs="http://svgjs.com/svgjs" viewBox="0.116 0 10.769 14" fill="#0842b7"><svg xmlns="http://www.w3.org/2000/svg" width="11" height="14" viewBox="1 2 9.999 12.999"><path paint-order="stroke fill markers" fill-rule="evenodd" d="M11 7.407a.889.889 0 0 1-.297.663.931.931 0 0 1-.675.232.907.907 0 0 1-.625-.303l-2.49-2.748v8.855A.903.903 0 0 1 6 15a.903.903 0 0 1-.912-.893V5.251L2.597 8a.923.923 0 0 1-1.29.075.884.884 0 0 1-.079-1.26L5.318 2.3A.927.927 0 0 1 6 2c.267 0 .525.115.69.308l4.08 4.506c.153.179.228.38.228.593z"/></svg></svg>