<svg width="20" height="14" xmlns="http://www.w3.org/2000/svg" xmlns:xlink="http://www.w3.org/1999/xlink" xmlns:svgjs="http://svgjs.com/svgjs" viewBox="0 0.158 20 13.684" fill="#0842b7"><svg xmlns="http://www.w3.org/2000/svg" width="20" height="14" viewBox="2 2 18.999 12.999"><path paint-order="stroke fill markers" fill-rule="evenodd" d="M20.258 3.116C19.573 2.322 18.306 2 15.888 2H7.11c-2.473 0-3.761.344-4.444 1.188C2 4.01 2 5.223 2 6.901v3.198c0 3.25.79 4.9 5.11 4.9h8.778c2.097 0 3.26-.285 4.011-.985.771-.717 1.1-1.888 1.1-3.915V6.9c0-1.77-.052-2.99-.74-3.785zm-6.06 5.825l-3.987 2.026a.634.634 0 0 1-.601-.019.594.594 0 0 1-.296-.51V6.401c0-.208.112-.402.295-.51a.628.628 0 0 1 .6-.02l3.987 2.013c.203.103.33.306.33.528a.594.594 0 0 1-.329.53z"/></svg></svg>