<svg width="21" height="17" xmlns="http://www.w3.org/2000/svg" xmlns:xlink="http://www.w3.org/1999/xlink" xmlns:svgjs="http://svgjs.com/svgjs" viewBox="0 0.094 21 16.811" fill="#0842b7"><svg xmlns="http://www.w3.org/2000/svg" width="21" height="17" viewBox="1.999 1.999 20.002 16.012"><path paint-order="stroke fill markers" fill-rule="evenodd" d="M3.028 18.012c-.568 0-1.03-.46-1.03-1.024V3.023C1.999 2.46 2.46 2 3.029 2h17.948a1.02 1.02 0 0 1 1.025 1.026v14.002c-.05.569-.508.985-1.069.985H3.028zM18.73 16l-4.45-5.466-1.628 1.486a1.11 1.11 0 0 1-.67.23c-.304 0-.565-.122-.678-.236l-1.598-1.456L5.277 16h13.454zM4.017 14.322L8.2 9.187 4.017 5.368v8.954zm15.93-.053V5.368l-4.16 3.795 4.16 5.106zm-7.963-4.343l6.415-5.878H5.57l6.415 5.878z"/></svg></svg>