<svg width="12" height="15" xmlns="http://www.w3.org/2000/svg" xmlns:xlink="http://www.w3.org/1999/xlink" xmlns:svgjs="http://svgjs.com/svgjs" viewBox="0.107 0 11.786 15" fill="#0842b7"><svg xmlns="http://www.w3.org/2000/svg" width="12" height="15" viewBox="1.989 1.988 11.003 14.004"><path paint-order="stroke fill markers" fill-rule="evenodd" d="M12.225 9.432c-.511-.56-1.192-.934-2.042-1.115v-.075a2.97 2.97 0 0 0 1.39-1.176c.337-.533.504-1.14.504-1.823 0-.59-.121-1.109-.365-1.562a2.658 2.658 0 0 0-1.104-1.08 4.308 4.308 0 0 0-1.464-.495c-.52-.08-1.286-.118-2.296-.118h-4.86v14.004h5.507c.954 0 1.741-.088 2.36-.264a4.781 4.781 0 0 0 1.705-.883 3.737 3.737 0 0 0 1.044-1.309c.259-.526.388-1.137.388-1.833 0-.953-.256-1.71-.767-2.271zM8.41 6.756c-.105.233-.296.413-.573.546a2.008 2.008 0 0 1-.735.198 27.86 27.86 0 0 1-1.242.018h-.435V4.555h.24c.616 0 1.08.005 1.391.014.311.01.58.065.808.165.24.106.418.279.532.517.114.239.17.472.17.696 0 .307-.052.577-.156.809zm.808 5.79c-.145.265-.374.467-.688.606a2.905 2.905 0 0 1-1.054.254c-.345.012-.967.019-1.866.019h-.185v-3.51h.638c.616 0 1.107.006 1.473.015.367.01.655.056.864.137.345.125.604.31.776.555.173.245.259.583.259 1.016 0 .339-.073.64-.217.907z"/></svg></svg>